# xmcd CD database file
#
# Track frame offsets:
#	150
#	19275
#	30000
#	52050
#
# Disc length: 946 seconds
#
# Revision: 1
# Processed by: cddbd v1.5.1PL0 Copyright (c) Steve Scherf et al.
# Submitted via: freeDBTagger 0.5
#
DISCID=2703b004
DTITLE=角松敏生/AGHARTA - ILLUMINANT
DYEAR=2001
DGENRE=rock
TTITLE0=ILLUMINANT
TTITLE1=ILLUMINANT(Puro Version)
TTITLE2=ILLUMINANT(Live Version - Toshiki Kadomatsu 20th Anniversary)
TTITLE3=ILLUMINANT(Instrumental)
EXTD=
EXTT0=
EXTT1=
EXTT2=
EXTT3=
PLAYORDER=
